<?xml version="1.0" encoding="utf-8"?>
<!-- Generator: Adobe Illustrator 21.1.0, SVG Export Plug-In . SVG Version: 6.00 Build 0)  -->
<svg version="1.1" id="Capa_1" xmlns="http://www.w3.org/2000/svg" xmlns:xlink="http://www.w3.org/1999/xlink" x="0px" y="0px"
	 viewBox="0 0 256 256" style="enable-background:new 0 0 256 256;" xml:space="preserve">
<g>
	<path d="M128,0C57.3,0,0,57.3,0,128c0,70.7,57.3,128,128,128c70.7,0,128-57.3,128-128C256,57.3,198.7,0,128,0z M39.1,131.2
		l45.1-18.7l5.1,12.3l-45.1,18.7L39.1,131.2z M85.9,212.5c0-20,18.6-36.2,41.7-36.2s41.7,16.2,41.7,36.2H85.9z M216.9,143.5
		l-45.1-18.7l5.1-12.3l45.1,18.7L216.9,143.5z"/>
</g>
</svg>
