<?xml version="1.0" encoding="utf-8"?>
<!-- Generator: Adobe Illustrator 21.1.0, SVG Export Plug-In . SVG Version: 6.00 Build 0)  -->
<svg version="1.1" id="Layer_1" xmlns="http://www.w3.org/2000/svg" xmlns:xlink="http://www.w3.org/1999/xlink" x="0px" y="0px"
	 viewBox="0 0 256 256" style="enable-background:new 0 0 256 256;" xml:space="preserve">
<g>
	<g>
		<path d="M128,0C57.4,0,0,57.4,0,128s57.4,128,128,128s128-57.4,128-128S198.6,0,128,0z M170.7,64c11.8,0,21.3,9.5,21.3,21.3
			c0,11.8-9.5,21.3-21.3,21.3c-11.8,0-21.3-9.5-21.3-21.3C149.3,73.5,158.9,64,170.7,64z M85.3,64c11.8,0,21.3,9.5,21.3,21.3
			c0,11.8-9.5,21.3-21.3,21.3c-11.8,0-21.3-9.5-21.3-21.3C64,73.5,73.5,64,85.3,64z M199.5,178.2c-4.2,4.2-10.9,4.2-15.1,0
			c-12.8-12.8-36.1-12.8-48.9,0c-10.4,10.4-24.5,16.2-39.5,16.2s-29.1-5.7-39.5-16.2c-4.2-4.2-4.2-10.9,0-15.1
			c4.2-4.2,10.9-4.2,15.1,0c12.8,12.8,36.1,12.8,48.9,0c10.4-10.4,24.5-16.2,39.5-16.2s29.1,5.7,39.5,16.2
			C203.7,167.3,203.7,174,199.5,178.2z"/>
	</g>
</g>
</svg>
