<?xml version="1.0" encoding="utf-8"?>
<!-- Generator: Adobe Illustrator 23.0.0, SVG Export Plug-In . SVG Version: 6.00 Build 0)  -->
<svg version="1.1" id="Capa_1" xmlns="http://www.w3.org/2000/svg" xmlns:xlink="http://www.w3.org/1999/xlink" x="0px" y="0px"
	 viewBox="0 0 256 256" style="enable-background:new 0 0 256 256;" xml:space="preserve">
<path d="M255.4,140.7c0.1-1,0.2-2,0.3-2.9c0-0.3,0-0.5,0-0.8c0.1-0.8,0.1-1.6,0.2-2.4c0-0.5,0-1,0.1-1.5c0-0.6,0.1-1.2,0.1-1.8
	c0-1.1,0-2.2,0-3.3C256,57.3,198.7,0,128,0S0,57.3,0,128c0,1.1,0,2.2,0,3.3c0,0.6,0,1.2,0.1,1.8c0,0.5,0,1,0.1,1.5
	c0,0.8,0.1,1.6,0.2,2.4c0,0.3,0,0.5,0,0.8c0.1,1,0.2,2,0.3,2.9c0,0.1,0,0.2,0,0.2C7.1,205.6,61.7,256,128,256
	s120.9-50.4,127.4-115.1C255.4,140.9,255.4,140.8,255.4,140.7z M17.4,96.3c0.1-0.3,0.2-0.6,0.3-0.9c2.9-9.5,8.5-17.7,16.1-23.8
	l79,45.6c-3.7,23.4-23.9,41.3-48.3,41.3c-27,0-48.9-21.9-48.9-48.9C15.6,105,16.2,100.5,17.4,96.3z M222.2,70.8
	c5.1,3.9,9.4,8.9,12.7,14.5c2.9,7.2,5,14.8,6.4,22.5c0,0.6,0.1,1.2,0.1,1.7c0,27-21.9,48.9-48.9,48.9c-24.8,0-45.3-18.5-48.4-42.5
	L222.2,70.8z M209.3,209.3C187.6,231,158.7,243,128,243s-59.6-12-81.3-33.7c-9.5-9.5-17.1-20.3-22.7-32.1h208
	C226.4,189,218.8,199.8,209.3,209.3z"/>
<rect x="99.9" y="199.4" transform="matrix(0.9295 -0.3687 0.3687 0.9295 -66.1671 70.5342)" width="103.1" height="18"/>
</svg>
