<?xml version="1.0" encoding="utf-8"?>
<!-- Generator: Adobe Illustrator 23.0.0, SVG Export Plug-In . SVG Version: 6.00 Build 0)  -->
<svg version="1.1" id="Layer_1" xmlns="http://www.w3.org/2000/svg" xmlns:xlink="http://www.w3.org/1999/xlink" x="0px" y="0px"
	 viewBox="0 0 256 256" style="enable-background:new 0 0 256 256;" xml:space="preserve">
<g>
	<path d="M244.3,50.1c-7.2-7.2-16.6-11.3-26.7-11.7c-0.4-9.9-4.5-19.5-11.7-26.7C198.3,4.2,188.2,0,177.5,0
		c-10.7,0-20.8,4.2-28.3,11.7c-12.3,12.3-15.2,30.8-7.6,46l-30.1,30.1c-1.4,1.4-2.2,3.3-2.2,5.3v22.8c0,4.1,3.4,7.5,7.5,7.5h39.1
		v15.3c0,3,1.8,5.8,4.6,6.9c0.9,0.4,1.9,0.6,2.9,0.6c2,0,3.9-0.8,5.3-2.2l29.6-29.6c5.5,2.7,11.5,4.1,17.7,4.1
		c10.7,0,20.8-4.2,28.3-11.7C259.9,91.2,259.9,65.8,244.3,50.1z"/>
	<path d="M139.2,132.5h-39.1v-15.3c0-3-1.8-5.8-4.6-6.9c-2.8-1.2-6-0.5-8.2,1.6l-29.6,29.6c-5.5-2.7-11.5-4.1-17.7-4.1
		c-10.7,0-20.8,4.2-28.3,11.7c-15.6,15.6-15.6,41,0,56.7c7.2,7.2,16.6,11.3,26.7,11.7c0.4,9.9,4.5,19.5,11.7,26.7
		c7.6,7.6,17.6,11.7,28.3,11.7c0,0,0,0,0,0c10.7,0,20.8-4.2,28.3-11.7c12.3-12.3,15.2-30.8,7.6-46l30.1-30.1
		c1.4-1.4,2.2-3.3,2.2-5.3V140C146.7,135.9,143.4,132.5,139.2,132.5z"/>
</g>
<rect x="8" y="93" width="60" height="15"/>
<rect x="70.5" y="30.5" transform="matrix(-1.836970e-16 1 -1 -1.836970e-16 138.5 -62.5)" width="60" height="15"/>
<rect x="125.5" y="210.5" transform="matrix(-1.836970e-16 1 -1 -1.836970e-16 373.5 62.5)" width="60" height="15"/>
<rect x="27.1" y="50" transform="matrix(0.7071 0.7071 -0.7071 0.7071 57.3668 -23.5287)" width="60" height="15"/>
<rect x="188" y="148" width="60" height="15"/>
<rect x="168.9" y="191" transform="matrix(0.7071 0.7071 -0.7071 0.7071 198.627 -82.4949)" width="60" height="15"/>
</svg>
