<?xml version="1.0" encoding="utf-8"?>
<!-- Generator: Adobe Illustrator 23.0.2, SVG Export Plug-In . SVG Version: 6.00 Build 0)  -->
<svg version="1.1" id="Capa_1" xmlns="http://www.w3.org/2000/svg" xmlns:xlink="http://www.w3.org/1999/xlink" x="0px" y="0px"
	 viewBox="0 0 256 256" style="enable-background:new 0 0 256 256;" xml:space="preserve">
<g>
	<g id="Layer_5_17_">
		<g>
			<path d="M148.2,84.6H19.5C8.8,84.6,0,93.3,0,104.1v128.6c0,10.7,8.8,19.5,19.5,19.5h128.6c10.7,0,19.5-8.8,19.5-19.5V104.1
				C167.7,93.3,158.9,84.6,148.2,84.6z M39.4,231.1c-10.1,0-18.3-8.2-18.3-18.3c0-10.1,8.2-18.3,18.3-18.3
				c10.1,0,18.3,8.2,18.3,18.3C57.7,223,49.5,231.1,39.4,231.1z M39.4,142.2c-10.1,0-18.3-8.2-18.3-18.3c0-10.1,8.2-18.3,18.3-18.3
				c10.1,0,18.3,8.2,18.3,18.3C57.7,134,49.5,142.2,39.4,142.2z M83.9,184.4c-10.1,0-18.3-8.2-18.3-18.3c0-10.1,8.2-18.3,18.3-18.3
				s18.3,8.2,18.3,18.3C102.1,176.2,94,184.4,83.9,184.4z M128.3,231.1c-10.1,0-18.3-8.2-18.3-18.3c0-10.1,8.2-18.3,18.3-18.3
				c10.1,0,18.3,8.2,18.3,18.3C146.6,223,138.4,231.1,128.3,231.1z M128.3,142.2c-10.1,0-18.3-8.2-18.3-18.3
				c0-10.1,8.2-18.3,18.3-18.3c10.1,0,18.3,8.2,18.3,18.3C146.6,134,138.4,142.2,128.3,142.2z"/>
			<path d="M234.9,3.7l-138.8,0C84.5,3.7,75,13.2,75,24.8v31.5c0,0-0.4,7.9,8.7,7.9c16.8,0,70.4,0,70.4,0
				c19.2,0,34.9,15.7,34.9,34.9v76.5c0,9.1,8.2,9.1,12.5,9.1c16.6,0,33.5,0,33.5,0c11.6,0,21.1-9.5,21.1-21.1V24.8
				C256,13.2,246.5,3.7,234.9,3.7z M213.5,66c-10.9,0-19.7-8.8-19.7-19.7c0-10.9,8.8-19.7,19.7-19.7c10.9,0,19.7,8.8,19.7,19.7
				C233.2,57.1,224.4,66,213.5,66z"/>
		</g>
	</g>
</g>
</svg>
