<?xml version="1.0" encoding="utf-8"?>
<!-- Generator: Adobe Illustrator 21.1.0, SVG Export Plug-In . SVG Version: 6.00 Build 0)  -->
<svg version="1.1" id="Capa_1" xmlns="http://www.w3.org/2000/svg" xmlns:xlink="http://www.w3.org/1999/xlink" x="0px" y="0px"
	 viewBox="0 0 256 256" style="enable-background:new 0 0 256 256;" xml:space="preserve">
<g>
	<path d="M133.9,109.9c-3,3.3-7.8,4.4-12,2.6c-3.9-1.7-8.5-0.7-11.3,2.5c0,0,0,0,0,0l-4.2,4.6c-2.1,2.3-3,5.4-2.4,8.4
		c0.5,3,2.5,5.6,5.2,7.1c14.7,7.7,32.8,4.4,43.9-7.9c15.6-17.3,14.2-44.1-3.1-59.8c-20.3-18.3-51.8-16.7-70.1,3.6
		c-21.7,24.1-19.8,61.4,4.3,83.1c28.8,26,73.3,23.7,99.3-5.1c31.3-34.7,28.5-88.3-6.2-119.6c-20.3-18.4-46.6-27.7-74-26.3
		C76,4.7,50.8,16.6,32.5,37c-46.2,51.2-42.1,130.4,9.1,176.5c30.3,27.4,69.5,41.3,110.3,39.2c38.2-2,74-18,100.9-45.2
		c0.1-0.1,0.2-0.2,0.3-0.3c1.7-1.9,2.6-4.4,2.6-7c-0.1-2.7-1.3-5.3-3.3-7.1l-4.4-4c-3.9-3.6-10-3.4-13.7,0.4
		c-47.8,48.2-124.8,50.3-175.3,4.8c-40.6-36.6-43.8-99.4-7.2-139.9c13.7-15.2,32.5-24.2,53-25.2C125.1,28,144.8,35,160,48.7
		c24.1,21.7,26,58.9,4.3,83c-16.4,18.2-44.5,19.6-62.7,3.2c-13.5-12.2-14.6-33-2.4-46.5c8.8-9.7,23.8-10.5,33.6-1.7
		C139.4,92.8,140,103.2,133.9,109.9z"/>
</g>
</svg>
