<svg id="Camada_1" data-name="Camada 1" xmlns="http://www.w3.org/2000/svg" viewBox="0 0 254.6 224.95"><defs><style>.cls-1{fill:#1d1d1b;}</style></defs><path class="cls-1" d="M88.55,16.23a14.81,14.81,0,0,0-15,3.67L45.93,47.52,96.52,98.11,3.9,190.74a10.87,10.87,0,0,0,0,15.39L35.05,237.3a10.88,10.88,0,0,0,15.39,0L203,84.74,156.43,38.2Z" transform="translate(-0.7 -15.53)"/><path class="cls-1" d="M252.62,134.4,214.16,95.94,154.29,155.8l38.47,38.47a9.6,9.6,0,0,0,13.57-.28l46-46A9.6,9.6,0,0,0,252.62,134.4Z" transform="translate(-0.7 -15.53)"/></svg>