<?xml version="1.0" encoding="utf-8"?>
<!-- Generator: Adobe Illustrator 25.0.1, SVG Export Plug-In . SVG Version: 6.00 Build 0)  -->
<svg version="1.1" id="Camada_1" xmlns="http://www.w3.org/2000/svg" xmlns:xlink="http://www.w3.org/1999/xlink" x="0px" y="0px"
	 viewBox="0 0 256 256" style="enable-background:new 0 0 256 256;" xml:space="preserve">
<image style="display:none;overflow:visible;" width="612" height="612" xlink:href="istockphoto-1204131492-612x612.jpg"  transform="matrix(0.8161 0 0 0.8161 0.28 -237.44)">
</image>
<path d="M112.3,138.7"/>
<path d="M225.4,173.6V0h-40v22.7h-29.2V0H128v0H99.8v22.7H70.6V0h-40v173.6c-0.3,6.1,0.1,17.2,6.6,28.2c1.3,2.2,3.7,6.2,9.8,11.9
	c9.9,9.3,18.9,14.6,31.1,21.2c11.5,6.2,28.3,14.1,50,21.2c21.7-7.1,38.6-14.9,50-21.2c12.1-6.6,21.2-11.9,31.1-21.2
	c6-5.7,8.5-9.6,9.8-11.9C225.3,190.7,225.7,179.7,225.4,173.6z"/>
</svg>
