<?xml version="1.0" encoding="utf-8"?>
<!-- Generator: Adobe Illustrator 23.0.2, SVG Export Plug-In . SVG Version: 6.00 Build 0)  -->
<svg version="1.1" id="Capa_1" xmlns="http://www.w3.org/2000/svg" xmlns:xlink="http://www.w3.org/1999/xlink" x="0px" y="0px"
	 viewBox="0 0 256 256" style="enable-background:new 0 0 256 256;" xml:space="preserve">
<g>
	<path d="M121.5,126.2H14.2c-4.2,0-8-2.5-9.6-6.4c-1.6-3.9-0.7-8.3,2.3-11.3l89.4-87.8H14.2C8.5,20.7,3.8,16,3.8,10.3
		C3.8,4.6,8.5,0,14.2,0h107.4c4.2,0,8,2.5,9.6,6.4c1.6,3.9,0.7,8.3-2.3,11.3l-89.4,87.8h82.1c5.7,0,10.3,4.7,10.3,10.3
		C131.9,121.6,127.2,126.2,121.5,126.2z M241.8,147.4h-50.6l57.9-56.9c3-3,3.9-7.4,2.3-11.3c-1.6-3.9-5.4-6.4-9.6-6.4H166
		c-5.7,0-10.3,4.6-10.3,10.3c0,5.7,4.7,10.3,10.3,10.3h50.6l-57.9,56.9c-3,3-3.9,7.4-2.3,11.3c1.6,3.9,5.4,6.5,9.6,6.5h75.9
		c5.7,0,10.3-4.6,10.3-10.3C252.1,152.1,247.5,147.4,241.8,147.4z M125.2,235.3H89.9l42.5-41.8c3-2.9,3.9-7.4,2.3-11.3
		c-1.6-3.9-5.4-6.4-9.6-6.4H64.6c-5.7,0-10.3,4.6-10.3,10.3c0,5.7,4.6,10.3,10.3,10.3h35.3l-42.5,41.8c-3,3-3.9,7.4-2.3,11.3
		c1.6,3.9,5.4,6.5,9.6,6.5h60.5c5.7,0,10.3-4.6,10.3-10.3S130.9,235.3,125.2,235.3z"/>
</g>
</svg>
