<?xml version="1.0" encoding="utf-8"?>
<!-- Generator: Adobe Illustrator 21.1.0, SVG Export Plug-In . SVG Version: 6.00 Build 0)  -->
<svg version="1.1" id="Capa_1" xmlns="http://www.w3.org/2000/svg" xmlns:xlink="http://www.w3.org/1999/xlink" x="0px" y="0px"
	 viewBox="0 0 256 256" style="enable-background:new 0 0 256 256;" xml:space="preserve">
<g>
	<g>
		<path d="M51.4,140.3c1.5,4.8,3,9.8,3.7,14.7c0.3,2,1.5,16.8,2.2,25c0.3,3.1,2.6,5.7,5.7,6.1l10.8,1.6c1.6,0.2,2.8,1.4,3.1,3
			l1.4,7.3c0.6,3.2,3.4,5.4,6.6,5.4l83.8,0c3.2,0,5.9-2.2,6.6-5.3l1.6-7.5c0.4-1.5,1.6-2.6,3.1-2.8l13.2-1.9
			c3.2-0.5,5.6-3.1,5.8-6.3c0.5-8.4,1.4-23.6,1.7-25.7c0.7-4.9,2.1-9.8,3.6-14.5c2-6.6,4-13.5,4-20.6c0-45.5-36.1-82.5-80.6-82.5
			s-80.6,37-80.6,82.5C47.1,126.3,49.3,133.4,51.4,140.3z M138.2,136.1c0.5-12.9,12.1-16.2,25-15.7c12.9,0.5,22.3,4.6,21.8,17.5
			s-11.4,23-24.3,22.5C147.7,159.9,137.6,149.1,138.2,136.1z M130.6,161.5l8.4,12.4c0.7,1.1,0.8,2.5,0.3,3.7l-1.2,2.5
			c-0.6,1.3-1.9,2.1-3.4,2.1h-7.2h-7.2c-1.4,0-2.7-0.8-3.4-2.1l-1.2-2.5c-0.6-1.2-0.5-2.6,0.3-3.7l8.4-12.4
			C125.9,159.3,129.1,159.3,130.6,161.5z M92.2,120.5c12.9-0.5,24.5,2.7,25,15.7c0.5,12.9-9.5,23.8-22.5,24.3s-23.8-9.5-24.3-22.5
			C69.9,125.1,79.2,121,92.2,120.5z"/>
		<path d="M232.7,24.5c1-6.2-0.9-12.7-5.6-17.5c-7.7-7.6-20.2-7.8-28-0.3c-8.2,7.8-8.3,20.8-0.3,28.7l-7.3,7.3
			c-2.9,2.9-2.9,7.7,0,10.6l12.5,12.5c2.9,2.9,7.7,2.9,10.6,0l7.3-7.3c8,8,20.9,7.8,28.7-0.3c7.5-7.8,7.3-20.3-0.3-28
			C245.4,25.4,238.9,23.5,232.7,24.5z"/>
		<path d="M34.2,58.5l7.3,7.3c2.9,2.9,7.7,2.9,10.6,0l12.5-12.5c2.9-2.9,2.9-7.7,0-10.6l-7.3-7.3c8-8,7.8-20.9-0.3-28.7
			c-7.8-7.5-20.3-7.3-28,0.3c-4.8,4.7-6.7,11.3-5.6,17.5c-6.2-1-12.7,0.9-17.5,5.6c-7.6,7.7-7.8,20.2-0.3,28
			C13.3,66.3,26.3,66.5,34.2,58.5z"/>
		<path d="M250.5,197.8c-7.8-8.2-20.8-8.3-28.7-0.3l-7.3-7.3c-2.9-2.9-7.7-2.9-10.6,0l-12.5,12.5c-2.9,2.9-2.9,7.7,0,10.6l7.3,7.3
			c-8,8-7.8,20.9,0.3,28.7c7.8,7.5,20.3,7.3,28-0.3c4.8-4.7,6.7-11.3,5.6-17.5c6.2,1,12.7-0.9,17.5-5.6
			C257.8,218.2,258,205.7,250.5,197.8z"/>
		<path d="M23.3,231.5c-1,6.2,0.9,12.7,5.6,17.5c7.7,7.6,20.2,7.8,28,0.3c8.2-7.8,8.3-20.8,0.3-28.7l7.3-7.3c2.9-2.9,2.9-7.7,0-10.6
			l-12.5-12.5c-2.9-2.9-7.7-2.9-10.6,0l-7.3,7.3c-8-8-20.9-7.8-28.7,0.3c-7.5,7.8-7.3,20.3,0.3,28C10.6,230.6,17.1,232.5,23.3,231.5
			z"/>
	</g>
</g>
</svg>
