<?xml version="1.0" encoding="utf-8"?>
<!-- Generator: Adobe Illustrator 23.0.0, SVG Export Plug-In . SVG Version: 6.00 Build 0)  -->
<svg version="1.1" id="Capa_1" xmlns="http://www.w3.org/2000/svg" xmlns:xlink="http://www.w3.org/1999/xlink" x="0px" y="0px"
	 viewBox="0 0 256 256" style="enable-background:new 0 0 256 256;" xml:space="preserve">
<path d="M177.6,96.3l-17.3-9.5c21.7-17.2,24.8-48.1,6.9-68.9C149.4-3,117.5-6,95.8,11.2s-24.8,48-6.9,68.9c2.1,2.4,4.4,4.7,6.9,6.7
	l-17.3,9.5c-2.2,1.2-3,3.9-1.7,6.1c0.8,1.4,2.4,2.2,4.1,2.2h94.3c2.6,0,4.6-1.9,4.6-4.4C179.9,98.6,179,97.1,177.6,96.3z
	 M74.2,205.2l-37.7,33V256h183v-17.8l-37.7-33c-1.9-1.7-4.5-2.6-7.2-2.6H81.4C78.6,202.6,76,203.5,74.2,205.2L74.2,205.2z
	 M151.6,113.5h-47.3c-2.6,0-4.9,1.8-5.1,4.1c-2.2,23.9-8,47.5-17.5,70c-1,2.3,0.3,4.9,3,5.7c0.6,0.2,1.1,0.3,1.7,0.3h83
	c2.9,0,5-2.1,5-4.5c0-0.5-0.1-1-0.3-1.5c-9.5-22.5-15.4-46.1-17.5-70C156.5,115.3,154.2,113.5,151.6,113.5z"/>
</svg>
